<svg width="20" height="19" viewBox="0 0 20 19" fill="none" xmlns="http://www.w3.org/2000/svg">
<path d="M4.98683 18.8259H1.00626V6.22061H4.98683V18.8259ZM2.9944 4.50114C1.72155 4.50114 0.689117 3.4644 0.689117 2.21272C0.689117 1.6115 0.931995 1.0349 1.36432 0.609767C1.79664 0.184637 2.383 -0.0541992 2.9944 -0.0541992C3.6058 -0.0541992 4.19216 0.184637 4.62449 0.609767C5.05681 1.0349 5.29969 1.6115 5.29969 2.21272C5.29969 3.4644 4.26683 4.50114 2.9944 4.50114ZM19.8848 18.8259H15.9128V12.6897C15.9128 11.2273 15.8828 9.35191 13.8433 9.35191C11.7737 9.35191 11.4565 10.9407 11.4565 12.5844V18.8259H7.48026V6.22061H11.298V7.94009H11.3537C11.8851 6.94971 13.1833 5.90453 15.12 5.90453C19.1485 5.90453 19.8891 8.51325 19.8891 11.9016V18.8259H19.8848Z" fill="#000033"/>
</svg>
